<svg height="1998" width="720" xmlns="http://www.w3.org/2000/svg">
<rect height="1998" fill="#555" width="720"></rect>
<text fill="#7f7" font-family="Courier New" font-size="12" xml:space="preserve">
<tspan x="10" y="26"></tspan>
<tspan x="10" y="42">&gt; npmdoc-yo-yo@0.0.1 test /home/travis/build/npmdoc/node-npmdoc-yo-yo</tspan>
<tspan x="10" y="58">&gt; (set -e; export PORT=$(utility2 shServerPortRandom); utility2 test test.js)</tspan>
<tspan x="10" y="74"></tspan>
<tspan x="10" y="90"></tspan>
<tspan x="10" y="106">[MODE_BUILD=npmTest] - 2017-04-07T15:28:21Z - npm-testing /home/travis/build/npmdoc/node-npmdoc-\</tspan>
<tspan x="10" y="122">yo-yo</tspan>
<tspan x="10" y="138"></tspan>
<tspan x="10" y="154"></tspan>
<tspan x="10" y="170">covering $ /home/travis/.nvm/versions/node/v6.10.2/bin/node /home/travis/build/npmdoc/node-npmdo\</tspan>
<tspan x="10" y="186">c-yo-yo/test.js</tspan>
<tspan x="10" y="202">merging file:///home/travis/build/npmdoc/node-npmdoc-yo-yo/tmp/build/test-report.json to test-re\</tspan>
<tspan x="10" y="218">port</tspan>
<tspan x="10" y="234">&gt; server listening on http-port 44860</tspan>
<tspan x="10" y="250">created apidoc file:///home/travis/build/npmdoc/node-npmdoc-yo-yo/tmp/build/apidoc.html</tspan>
<tspan x="10" y="266"></tspan>
<tspan x="10" y="282"></tspan>
<tspan x="10" y="298">browserTest - created electron entry-page /home/travis/build/npmdoc/node-npmdoc-yo-yo/tmp/electr\</tspan>
<tspan x="10" y="314">on.15b4907d70a0.23384bb5cdf1b.html</tspan>
<tspan x="10" y="330"></tspan>
<tspan x="10" y="346">[node test-case 1 of 6 passed] - testCase_buildLib_default</tspan>
<tspan x="10" y="362">[node test-case 2 of 6 passed] - testCase_buildReadme_default</tspan>
<tspan x="10" y="378">[node test-case 3 of 6 passed] - testCase_buildTest_default</tspan>
<tspan x="10" y="394"></tspan>
<tspan x="10" y="410">browserTest - created electron entry-page /home/travis/build/npmdoc/node-npmdoc-yo-yo/tmp/electr\</tspan>
<tspan x="10" y="426">on.15b4907d74f0.9c653ca05fc59.html</tspan>
<tspan x="10" y="442"></tspan>
<tspan x="10" y="458">Xlib:  extension "RANDR" missing on display ":99.0".</tspan>
<tspan x="10" y="474">Xlib:  extension "RANDR" missing on display ":99.0".</tspan>
<tspan x="10" y="490">merging file:///home/travis/build/npmdoc/node-npmdoc-yo-yo/tmp/build/test-report.json to test-re\</tspan>
<tspan x="10" y="506">port</tspan>
<tspan x="10" y="522">merging file:///home/travis/build/npmdoc/node-npmdoc-yo-yo/tmp/build/test-report.json to test-re\</tspan>
<tspan x="10" y="538">port</tspan>
<tspan x="10" y="554">Xlib:  extension "RANDR" missing on display ":99.0".</tspan>
<tspan x="10" y="570">Xlib:  extension "RANDR" missing on display ":99.0".</tspan>
<tspan x="10" y="586">[4958:0407/152823:WARNING:audio_manager.cc(314)] Multiple instances of AudioManager detected</tspan>
<tspan x="10" y="602">[4958:0407/152823:WARNING:audio_manager.cc(275)] Multiple instances of AudioManager detected</tspan>
<tspan x="10" y="618">[4961:0407/152823:WARNING:audio_manager.cc(314)] Multiple instances of AudioManager detected</tspan>
<tspan x="10" y="634">[4961:0407/152823:WARNING:audio_manager.cc(275)] Multiple instances of AudioManager detected</tspan>
<tspan x="10" y="650">&gt; server listening on http-port 51557</tspan>
<tspan x="10" y="666">[4989:0407/152823:ERROR:sandbox_linux.cc(343)] InitializeSandbox() called with multiple threads \</tspan>
<tspan x="10" y="682">in process gpu-process. </tspan>
<tspan x="10" y="698">[5008:0407/152823:ERROR:sandbox_linux.cc(343)] InitializeSandbox() called with multiple threads \</tspan>
<tspan x="10" y="714">in process gpu-process. </tspan>
<tspan x="10" y="730">[4961:0407/152823:ERROR:browser_gpu_channel_host_factory.cc(131)] Failed to create channel.</tspan>
<tspan x="10" y="746"></tspan>
<tspan x="10" y="762">browserTest - opened url /home/travis/build/npmdoc/node-npmdoc-yo-yo/tmp/build/apidoc.html</tspan>
<tspan x="10" y="778"></tspan>
<tspan x="10" y="794"></tspan>
<tspan x="10" y="810">browserTest - opened url http://127.0.0.1:44860?modeTest=1</tspan>
<tspan x="10" y="826"></tspan>
<tspan x="10" y="842">[4961:0407/152825:INFO:CONSOLE(250)] "----------|-----------|-----------|-----------|-----------\</tspan>
<tspan x="10" y="858">|</tspan>
<tspan x="10" y="874">File      |   % Stmts |% Branches |   % Funcs |   % Lines |</tspan>
<tspan x="10" y="890">----------|-----------|-----------|-----------|-----------|</tspan>
<tspan x="10" y="906">----------|-----------|-----------|-----------|-----------|</tspan>
<tspan x="10" y="922">All files |       100 |       100 |       100 |       100 |</tspan>
<tspan x="10" y="938">----------|-----------|-----------|-----------|-----------|</tspan>
<tspan x="10" y="954">", source: file:///home/travis/build/npmdoc/node-npmdoc-yo-yo/tmp/electron.15b4907d74f0.9c653ca0\</tspan>
<tspan x="10" y="970">5fc59.html (250)</tspan>
<tspan x="10" y="986">[4961:0407/152825:INFO:CONSOLE(250)] "created coverage file:///tmp/build/coverage.html/index.htm\</tspan>
<tspan x="10" y="1002">l", source: file:///home/travis/build/npmdoc/node-npmdoc-yo-yo/tmp/electron.15b4907d74f0.9c653ca\</tspan>
<tspan x="10" y="1018">05fc59.html (250)</tspan>
<tspan x="10" y="1034">[node test-case 4 of 6 passed] - testCase_buildApp_default</tspan>
<tspan x="10" y="1050"></tspan>
<tspan x="10" y="1066">browserTest - created screenCapture file:///home/travis/build/npmdoc/node-npmdoc-yo-yo/tmp/build\</tspan>
<tspan x="10" y="1082">/screenCapture.npmTest.browser._2Fhome_2Ftravis_2Fbuild_2Fnpmdoc_2Fnode-npmdoc-yo-yo_2Ftmp_2Fbui\</tspan>
<tspan x="10" y="1098">ld_2Fapidoc.html.png</tspan>
<tspan x="10" y="1114"></tspan>
<tspan x="10" y="1130">browserTest - created screenCapture file:///home/travis/build/npmdoc/node-npmdoc-yo-yo/tmp/build\</tspan>
<tspan x="10" y="1146">/screenCapture.npmTest.browser._2Fhome_2Ftravis_2Fbuild_2Fnpmdoc_2Fnode-npmdoc-yo-yo_2Ftmp_2Fbui\</tspan>
<tspan x="10" y="1162">ld_2Fapidoc.html.html</tspan>
<tspan x="10" y="1178"></tspan>
<tspan x="10" y="1194">browserTest - exit-code 0 - /home/travis/build/npmdoc/node-npmdoc-yo-yo/tmp/build/apidoc.html</tspan>
<tspan x="10" y="1210"></tspan>
<tspan x="10" y="1226"></tspan>
<tspan x="10" y="1242">browserTest - created screenCapture file:///home/travis/build/npmdoc/node-npmdoc-yo-yo/tmp/build\</tspan>
<tspan x="10" y="1258">/screenCapture.npmTest.browser..png</tspan>
<tspan x="10" y="1274"></tspan>
<tspan x="10" y="1290">[node test-case 5 of 6 passed] - testCase_buildApidoc_default</tspan>
<tspan x="10" y="1306">browserTest - created screenCapture file:///home/travis/build/npmdoc/node-npmdoc-yo-yo/tmp/build\</tspan>
<tspan x="10" y="1322">/screenCapture.npmTest.browser..html</tspan>
<tspan x="10" y="1338"></tspan>
<tspan x="10" y="1354">browserTest - exit-code 0 - http://127.0.0.1:44860?modeTest=1</tspan>
<tspan x="10" y="1370"></tspan>
<tspan x="10" y="1386"></tspan>
<tspan x="10" y="1402">browserTest - merged coverage from /home/travis/build/npmdoc/node-npmdoc-yo-yo/tmp/coverage.npmT\</tspan>
<tspan x="10" y="1418">est.browser.%2F.json</tspan>
<tspan x="10" y="1434"></tspan>
<tspan x="10" y="1450"></tspan>
<tspan x="10" y="1466">browserTest - merging test-report from /home/travis/build/npmdoc/node-npmdoc-yo-yo/tmp/test-repo\</tspan>
<tspan x="10" y="1482">rt.npmTest.browser.%2F.json</tspan>
<tspan x="10" y="1498"></tspan>
<tspan x="10" y="1514">[node test-case 6 of 6 passed] - testCase_webpage_default</tspan>
<tspan x="10" y="1530">--------------------------|-----------|-----------|-----------|-----------|</tspan>
<tspan x="10" y="1546">File                      |   % Stmts |% Branches |   % Funcs |   % Lines |</tspan>
<tspan x="10" y="1562">--------------------------|-----------|-----------|-----------|-----------|</tspan>
<tspan x="10" y="1578">   node-npmdoc-yo-yo/     |       100 |       100 |       100 |       100 |</tspan>
<tspan x="10" y="1594">      example.js          |       100 |       100 |       100 |       100 |</tspan>
<tspan x="10" y="1610">      lib.npmdoc_yo_yo.js |       100 |       100 |       100 |       100 |</tspan>
<tspan x="10" y="1626">      test.js             |       100 |       100 |       100 |       100 |</tspan>
<tspan x="10" y="1642">--------------------------|-----------|-----------|-----------|-----------|</tspan>
<tspan x="10" y="1658">All files                 |       100 |       100 |       100 |       100 |</tspan>
<tspan x="10" y="1674">--------------------------|-----------|-----------|-----------|-----------|</tspan>
<tspan x="10" y="1690"></tspan>
<tspan x="10" y="1706">created coverage file:///home/travis/build/npmdoc/node-npmdoc-yo-yo/tmp/build/coverage.html/inde\</tspan>
<tspan x="10" y="1722">x.html</tspan>
<tspan x="10" y="1738">merging file:///home/travis/build/npmdoc/node-npmdoc-yo-yo/tmp/build/test-report.json to test-re\</tspan>
<tspan x="10" y="1754">port</tspan>
<tspan x="10" y="1770"></tspan>
<tspan x="10" y="1786">-------------------------------------------------------</tspan>
<tspan x="10" y="1802">| test-report - buildNpmdoc - node - linux v6.10.2 - 2017-04-07T15:28:00.560Z</tspan>
<tspan x="10" y="1818">|   36842 ms            0 failed        6 passed      |</tspan>
<tspan x="10" y="1834">-------------------------------------------------------</tspan>
<tspan x="10" y="1850"></tspan>
<tspan x="10" y="1866">created test-report file:///home/travis/build/npmdoc/node-npmdoc-yo-yo/tmp/build/test-report.htm\</tspan>
<tspan x="10" y="1882">l</tspan>
<tspan x="10" y="1898"></tspan>
<tspan x="10" y="1914"></tspan>
<tspan x="10" y="1930">npmTest - 0 failed tests</tspan>
<tspan x="10" y="1946"></tspan>
<tspan x="10" y="1962"></tspan>
<tspan x="10" y="1978">[MODE_BUILD=npmTest] - 2017-04-07T15:28:40Z - EXIT_CODE - 0</tspan>
</text>
</svg>
